<?xml version="1.0" standalone="no"?>
<svg xmlns="http://www.w3.org/2000/svg" viewBox="0 0 199.152 29" width="199.152" height="29"><g fill="#579558" color="#579558" transform="translate(0, 0) scale(0.29)"><svg width="100.0" height="100.0" x="0.0" y="0.0" viewBox="0 0 100 100"><g><g><path fill="currentColor" d="M22,84h56v4h4V14h-2h-2H22h-2h-2v74h4V84z M52,18h26v49H52V18z M22,18h26v49H22V18z M22,71h56v9H22V71z"></path><rect x="41" y="40" fill="currentColor" width="4" height="6"></rect><rect x="55" y="40" fill="currentColor" width="4" height="6"></rect><rect x="33" y="73" fill="currentColor" width="4" height="4"></rect><rect x="63" y="73" fill="currentColor" width="4" height="4"></rect></g></g></svg></g><line x1="41" y1="1" x2="41" y2="28" stroke="#579558" stroke-linecap="round"></line><path fill="#579558" fill-rule="nonzero" d="M5.33 19.82L5.33 19.82Q3.36 19.82 2.18 19.06Q1.01 18.29 0.50 16.86Q0 15.43 0 13.51L0 13.51L0 6.14Q0 4.22 0.52 2.84Q1.03 1.46 2.20 0.73Q3.36 0 5.33 0L5.33 0Q7.30 0 8.45 0.74Q9.60 1.49 10.12 2.86Q10.63 4.22 10.63 6.14L10.63 6.14L10.63 13.54Q10.63 15.43 10.12 16.85Q9.60 18.26 8.45 19.04Q7.30 19.82 5.33 19.82ZM5.33 17.69L5.33 17.69Q6.41 17.69 6.96 17.24Q7.51 16.80 7.70 16.00Q7.90 15.19 7.90 14.11L7.90 14.11L7.90 5.59Q7.90 4.51 7.70 3.73Q7.51 2.95 6.96 2.53Q6.41 2.11 5.33 2.11L5.33 2.11Q4.25 2.11 3.68 2.53Q3.12 2.95 2.93 3.73Q2.74 4.51 2.74 5.59L2.74 5.59L2.74 14.11Q2.74 15.19 2.93 16.00Q3.12 16.80 3.68 17.24Q4.25 17.69 5.33 17.69ZM15.65 19.61L13.08 19.61L13.08 5.74L15.65 5.74L15.65 7.10Q16.34 6.46 17.18 6Q18.02 5.54 19.03 5.54L19.03 5.54Q19.87 5.54 20.32 5.98Q20.76 6.41 20.94 7.06Q21.12 7.70 21.12 8.38L21.12 8.38L21.12 19.61L18.55 19.61L18.55 9.12Q18.55 8.38 18.34 7.97Q18.12 7.56 17.45 7.56L17.45 7.56Q17.02 7.56 16.55 7.81Q16.08 8.06 15.65 8.42L15.65 8.42L15.65 19.61ZM27.46 19.80L27.46 19.80Q25.82 19.80 24.94 19.16Q24.05 18.53 23.70 17.29Q23.35 16.06 23.35 14.26L23.35 14.26L23.35 11.09Q23.35 9.24 23.71 8.02Q24.07 6.79 24.97 6.17Q25.87 5.54 27.46 5.54L27.46 5.54Q29.21 5.54 30.04 6.26Q30.86 6.98 31.13 8.34Q31.39 9.70 31.39 11.59L31.39 11.59L31.39 12.72L25.92 12.72L25.92 15.50Q25.92 16.34 26.08 16.87Q26.23 17.40 26.58 17.65Q26.93 17.90 27.48 17.90L27.48 17.90Q28.06 17.90 28.36 17.63Q28.66 17.35 28.76 16.84Q28.87 16.32 28.87 15.62L28.87 15.62L28.87 14.78L31.37 14.78L31.37 15.31Q31.37 17.40 30.48 18.60Q29.59 19.80 27.46 19.80ZM25.92 10.58L25.92 11.33L28.87 11.33L28.87 10.08Q28.87 9.22 28.78 8.63Q28.68 8.04 28.38 7.74Q28.08 7.44 27.43 7.44L27.43 7.44Q26.81 7.44 26.48 7.73Q26.16 8.02 26.04 8.70Q25.92 9.38 25.92 10.58L25.92 10.58ZM38.81 19.82L38.81 19.82Q36.74 19.82 35.60 18.96Q34.46 18.10 34.02 16.63Q33.58 15.17 33.58 13.37L33.58 13.37L33.58 6.50Q33.58 4.54 34.02 3.07Q34.46 1.61 35.60 0.80Q36.74 0 38.81 0L38.81 0Q40.63 0 41.70 0.67Q42.77 1.34 43.24 2.59Q43.70 3.84 43.70 5.59L43.70 5.59L43.70 7.13L41.14 7.13L41.14 5.76Q41.14 4.68 41.03 3.85Q40.92 3.02 40.44 2.57Q39.96 2.11 38.83 2.11L38.83 2.11Q37.68 2.11 37.15 2.60Q36.62 3.10 36.47 4.00Q36.31 4.90 36.31 6.10L36.31 6.10L36.31 13.80Q36.31 15.26 36.55 16.12Q36.79 16.97 37.34 17.33Q37.90 17.69 38.83 17.69L38.83 17.69Q39.94 17.69 40.42 17.20Q40.90 16.70 41.02 15.84Q41.14 14.98 41.14 13.82L41.14 13.82L41.14 12.38L43.70 12.38L43.70 13.82Q43.70 15.60 43.27 16.96Q42.84 18.31 41.78 19.07Q40.73 19.82 38.81 19.82ZM48.89 19.61L46.32 19.61L46.32 0.17L48.89 0.17L48.89 19.61ZM54.31 19.61L51.74 19.61L51.74 5.74L54.31 5.74L54.31 19.61ZM54.31 3.67L51.74 3.67L51.74 0.98L54.31 0.98L54.31 3.67ZM60.86 19.80L60.86 19.80Q59.16 19.80 58.28 19.12Q57.41 18.43 57.11 17.18Q56.81 15.94 56.81 14.28L56.81 14.28L56.81 11.09Q56.81 9.34 57.12 8.10Q57.43 6.86 58.31 6.20Q59.18 5.54 60.86 5.54L60.86 5.54Q62.38 5.54 63.20 6.04Q64.03 6.53 64.34 7.50Q64.66 8.47 64.66 9.91L64.66 9.91L64.66 10.73L62.33 10.73L62.33 9.89Q62.33 8.98 62.21 8.45Q62.09 7.92 61.78 7.68Q61.46 7.44 60.89 7.44L60.89 7.44Q60.26 7.44 59.93 7.73Q59.59 8.02 59.48 8.70Q59.38 9.38 59.38 10.56L59.38 10.56L59.38 14.93Q59.38 16.70 59.71 17.30Q60.05 17.90 60.91 17.90L60.91 17.90Q61.56 17.90 61.86 17.60Q62.16 17.30 62.24 16.75Q62.33 16.20 62.33 15.50L62.33 15.50L62.33 14.38L64.66 14.38L64.66 15.34Q64.66 16.73 64.33 17.74Q64.01 18.74 63.18 19.27Q62.35 19.80 60.86 19.80ZM69.55 19.58L66.98 19.58L66.98 0.14L69.55 0.14L69.55 11.74L73.30 5.74L75.98 5.74L72.72 11.16L75.89 19.61L73.32 19.61L70.73 12.50L69.55 14.28L69.55 19.58ZM87.53 19.82L87.53 19.82Q85.85 19.82 84.73 19.10Q83.62 18.38 83.04 17.11Q82.46 15.84 82.37 14.16L82.37 14.16L84.77 13.51Q84.84 14.54 85.09 15.50Q85.34 16.46 85.92 17.08Q86.50 17.69 87.53 17.69L87.53 17.69Q88.58 17.69 89.12 17.10Q89.66 16.51 89.66 15.41L89.66 15.41Q89.66 14.09 89.06 13.28Q88.46 12.48 87.55 11.66L87.55 11.66L84.29 8.78Q83.33 7.94 82.87 6.95Q82.42 5.95 82.42 4.49L82.42 4.49Q82.42 2.35 83.64 1.18Q84.86 0 86.98 0L86.98 0Q88.13 0 89.00 0.30Q89.88 0.60 90.47 1.22Q91.06 1.85 91.40 2.80Q91.75 3.74 91.87 5.02L91.87 5.02L89.57 5.64Q89.50 4.68 89.28 3.88Q89.06 3.07 88.52 2.58Q87.98 2.09 86.98 2.09L86.98 2.09Q85.97 2.09 85.40 2.63Q84.84 3.17 84.84 4.22L84.84 4.22Q84.84 5.11 85.14 5.69Q85.44 6.26 86.11 6.86L86.11 6.86L89.40 9.74Q90.50 10.70 91.34 12.04Q92.18 13.37 92.18 15.19L92.18 15.19Q92.18 16.63 91.58 17.68Q90.98 18.72 89.94 19.27Q88.90 19.82 87.53 19.82ZM96.72 19.61L94.15 19.61L94.15 0.17L96.72 0.17L96.72 7.18Q97.42 6.50 98.28 6.02Q99.14 5.54 100.20 5.54L100.20 5.54Q101.02 5.54 101.46 5.98Q101.90 6.41 102.08 7.06Q102.26 7.70 102.26 8.38L102.26 8.38L102.26 19.61L99.70 19.61L99.70 9.12Q99.70 8.38 99.48 7.97Q99.26 7.56 98.59 7.56L98.59 7.56Q98.14 7.56 97.64 7.82Q97.15 8.09 96.72 8.47L96.72 8.47L96.72 19.61ZM107.26 19.80L107.26 19.80Q106.44 19.80 105.82 19.33Q105.19 18.86 104.83 18.13Q104.47 17.40 104.47 16.58L104.47 16.58Q104.47 15.29 104.90 14.40Q105.34 13.51 106.09 12.90Q106.85 12.29 107.84 11.83Q108.84 11.38 109.94 10.94L109.94 10.94L109.94 9.96Q109.94 9.12 109.85 8.57Q109.75 8.02 109.45 7.74Q109.15 7.46 108.55 7.46L108.55 7.46Q108.02 7.46 107.70 7.70Q107.38 7.94 107.23 8.39Q107.09 8.83 107.09 9.43L107.09 9.43L107.09 10.13L104.54 10.03Q104.59 7.73 105.60 6.64Q106.61 5.54 108.72 5.54L108.72 5.54Q110.78 5.54 111.65 6.67Q112.51 7.80 112.51 9.94L112.51 9.94L112.51 16.27Q112.51 16.92 112.55 17.52Q112.58 18.12 112.64 18.64Q112.70 19.15 112.75 19.61L112.75 19.61L110.40 19.61Q110.33 19.22 110.22 18.64Q110.11 18.05 110.06 17.57L110.06 17.57Q109.82 18.38 109.14 19.09Q108.46 19.80 107.26 19.80ZM108.26 17.59L108.26 17.59Q108.65 17.59 108.98 17.38Q109.32 17.16 109.58 16.88Q109.85 16.61 109.94 16.44L109.94 16.44L109.94 12.50Q109.34 12.84 108.82 13.18Q108.29 13.51 107.89 13.88Q107.50 14.26 107.27 14.72Q107.04 15.19 107.04 15.79L107.04 15.79Q107.04 16.63 107.35 17.11Q107.66 17.59 108.26 17.59ZM117.62 19.61L115.06 19.61L115.06 5.74L117.62 5.74L117.62 7.70Q118.39 6.43 119.16 6Q119.93 5.57 120.70 5.57L120.70 5.57Q120.79 5.57 120.88 5.57Q120.96 5.57 121.10 5.59L121.10 5.59L121.10 8.42Q120.82 8.30 120.44 8.22Q120.07 8.14 119.69 8.14L119.69 8.14Q119.09 8.14 118.60 8.41Q118.10 8.69 117.62 9.48L117.62 9.48L117.62 19.61ZM125.42 19.61L122.86 19.61L122.86 5.74L125.42 5.74L125.42 19.61ZM125.42 3.67L122.86 3.67L122.86 0.98L125.42 0.98L125.42 3.67ZM130.75 19.61L128.18 19.61L128.18 5.74L130.75 5.74L130.75 7.10Q131.45 6.46 132.29 6Q133.13 5.54 134.14 5.54L134.14 5.54Q134.98 5.54 135.42 5.98Q135.86 6.41 136.04 7.06Q136.22 7.70 136.22 8.38L136.22 8.38L136.22 19.61L133.66 19.61L133.66 9.12Q133.66 8.38 133.44 7.97Q133.22 7.56 132.55 7.56L132.55 7.56Q132.12 7.56 131.65 7.81Q131.18 8.06 130.75 8.42L130.75 8.42L130.75 19.61ZM142.32 23.90L142.32 23.90Q141.07 23.90 140.06 23.64Q139.06 23.38 138.48 22.80Q137.90 22.22 137.90 21.29L137.90 21.29Q137.90 20.62 138.19 20.11Q138.48 19.61 138.94 19.24Q139.39 18.86 139.90 18.62L139.90 18.62Q139.22 18.43 138.89 18.01Q138.55 17.59 138.55 17.14L138.55 17.14Q138.55 16.37 138.96 15.82Q139.37 15.26 140.09 14.62L140.09 14.62Q139.30 14.02 138.89 13.08Q138.48 12.14 138.48 10.49L138.48 10.49Q138.48 8.86 138.92 7.76Q139.37 6.67 140.24 6.11Q141.12 5.54 142.39 5.54L142.39 5.54Q143.52 5.54 144.20 5.93Q144.89 6.31 145.25 7.08L145.25 7.08Q145.37 6.89 145.90 6.42Q146.42 5.95 147.12 5.64L147.12 5.64L147.50 5.47L148.15 7.13Q147.84 7.18 147.32 7.36Q146.81 7.54 146.36 7.72Q145.92 7.90 145.80 8.02L145.80 8.02Q145.97 8.42 146.10 9.19Q146.23 9.96 146.23 10.56L146.23 10.56Q146.23 11.98 145.87 13.06Q145.51 14.14 144.68 14.75Q143.86 15.36 142.39 15.36L142.39 15.36Q142.08 15.36 141.72 15.31Q141.36 15.26 141.07 15.19L141.07 15.19Q140.93 15.41 140.77 15.70Q140.62 15.98 140.62 16.25L140.62 16.25Q140.62 16.51 140.89 16.67Q141.17 16.82 141.77 16.87L141.77 16.87L143.93 17.06Q145.56 17.21 146.35 18.05Q147.14 18.89 147.14 20.45L147.14 20.45Q147.14 21.58 146.62 22.36Q146.09 23.14 145.02 23.52Q143.95 23.90 142.32 23.90ZM142.51 21.89L142.51 21.89Q143.88 21.89 144.53 21.56Q145.18 21.24 145.18 20.52L145.18 20.52Q145.18 20.09 145.02 19.80Q144.86 19.51 144.46 19.34Q144.05 19.18 143.28 19.10L143.28 19.10L141.10 18.91Q140.83 19.18 140.59 19.44Q140.35 19.70 140.21 20.00Q140.06 20.30 140.06 20.64L140.06 20.64Q140.06 21.26 140.59 21.58Q141.12 21.89 142.51 21.89ZM142.39 13.56L142.39 13.56Q142.94 13.56 143.27 13.36Q143.59 13.15 143.76 12.76Q143.93 12.36 143.99 11.78Q144.05 11.21 144.05 10.49L144.05 10.49Q144.05 9.77 143.99 9.18Q143.93 8.59 143.77 8.17Q143.62 7.75 143.29 7.54Q142.97 7.32 142.42 7.32L142.42 7.32Q141.89 7.32 141.54 7.54Q141.19 7.75 141.02 8.15Q140.86 8.54 140.78 9.13Q140.71 9.72 140.71 10.49L140.71 10.49Q140.71 11.14 140.77 11.70Q140.83 12.26 141.01 12.67Q141.19 13.08 141.53 13.32Q141.86 13.56 142.39 13.56Z" transform="translate(51, 4.696)"></path></svg>